<svg width="20" height="19" viewBox="0 0 20 19" fill="none" xmlns="http://www.w3.org/2000/svg">
<path d="M8.78906 1.50293C9.38829 0.683528 10.6117 0.683528 11.2109 1.50293L13.2256 4.25879C13.5341 4.68065 13.9673 4.99519 14.4639 5.1582L17.707 6.22266C18.6715 6.53939 19.0493 7.70327 18.4551 8.52637L16.457 11.293C16.1511 11.7168 15.986 12.2263 15.9844 12.749L15.9736 16.1621C15.9706 17.1773 14.9811 17.8967 14.0146 17.5859L10.7656 16.541C10.2679 16.381 9.73205 16.381 9.23438 16.541L5.98535 17.5859C5.01886 17.8967 4.02944 17.1773 4.02637 16.1621L4.01562 12.749C4.01402 12.2263 3.84894 11.7168 3.54297 11.293L1.54492 8.52637C0.950704 7.70327 1.3285 6.53939 2.29297 6.22266L5.53613 5.1582C6.03272 4.99519 6.46587 4.68065 6.77441 4.25879L8.78906 1.50293Z" fill="white" stroke="#919191"/>
</svg>
